HIERARCHY
ROOT HipCenter
{
    OFFSET 0.0 0.0 -0.0
    CHANNELS 6 Xposition Yposition Zposition Zrotation Xrotation Yrotation
    JOINT Spine
    {
        OFFSET 0.0 12.24189567565918 0.0
        CHANNELS 3 Zrotation Xrotation Yrotation
        JOINT ShoulderCenter
        {
            OFFSET 0.0 34.96759796142578 0.0
            CHANNELS 3 Zrotation Xrotation Yrotation
            JOINT LeftShoulder
            {
                OFFSET 18.57907485961914 0.0 0.0
                CHANNELS 3 Zrotation Xrotation Yrotation
                JOINT LeftElbow
                {
                    OFFSET 29.718101501464844 0.0 0.0
                    CHANNELS 3 Zrotation Xrotation Yrotation
                    JOINT LeftWrist
                    {
                        OFFSET 30.15770149230957 0.0 0.0
                        CHANNELS 3 Zrotation Xrotation Yrotation
                        JOINT LeftHand
                        {
                            OFFSET 4.0852508544921875 0.0 0.0
                            CHANNELS 3 Zrotation Xrotation Yrotation
                            End Site
                            {
                                OFFSET 1.6341001987457275 0.0 0.0
                            }
                        }
                    }
                }
            }
            JOINT RightShoulder
            {
                OFFSET -18.57907485961914 0.0 0.0
                CHANNELS 3 Zrotation Xrotation Yrotation
                JOINT RightElbow
                {
                    OFFSET -29.718101501464844 0.0 0.0
                    CHANNELS 3 Zrotation Xrotation Yrotation
                    JOINT RightWrist
                    {
                        OFFSET -30.15770149230957 0.0 0.0
                        CHANNELS 3 Zrotation Xrotation Yrotation
                        JOINT RightHand
                        {
                            OFFSET -4.0852508544921875 0.0 0.0
                            CHANNELS 3 Zrotation Xrotation Yrotation
                            End Site
                            {
                                OFFSET -1.6341001987457275 0.0 0.0
                            }
                        }
                    }
                }
            }
            End Site
            {
                OFFSET 0.0 13.987040519714355 0.0
            }
        }
    }
    JOINT LeftHip
    {
        OFFSET 15.674403190612793 0.0 0.0
        CHANNELS 3 Zrotation Xrotation Yrotation
        JOINT LeftKnee
        {
            OFFSET 0.0 -41.610260009765625 0.0
            CHANNELS 3 Zrotation Xrotation Yrotation
            JOINT LeftAnkle
            {
                OFFSET 0.0 -41.75247573852539 0.0
                CHANNELS 3 Zrotation Xrotation Yrotation
                JOINT LeftFoot
                {
                    OFFSET 0.0 -9.873124122619629 0.0
                    CHANNELS 3 Zrotation Xrotation Yrotation
                    End Site
                    {
                        OFFSET 0.0 0.0 3.949249267578125
                    }
                }
            }
        }
    }
    JOINT RightHip
    {
        OFFSET -15.674403190612793 0.0 0.0
        CHANNELS 3 Zrotation Xrotation Yrotation
        JOINT RightKnee
        {
            OFFSET 0.0 -41.610260009765625 0.0
            CHANNELS 3 Zrotation Xrotation Yrotation
            JOINT RightAnkle
            {
                OFFSET 0.0 -41.75247573852539 0.0
                CHANNELS 3 Zrotation Xrotation Yrotation
                JOINT RightFoot
                {
                    OFFSET 0.0 -9.873124122619629 0.0
                    CHANNELS 3 Zrotation Xrotation Yrotation
                    End Site
                    {
                        OFFSET 0.0 0.0 3.949249267578125
                    }
                }
            }
        }
    }
}
MOTION
Frames: 8
Frame Time: 0.03333333333333333
29.80000114440918 0.0 3.799999952316284 0.469637901780448 -3.751603181923982 104.50913090728521 5.553815089996227 1.9211603144924914 -0.09614626081826531 -1.397101827078565e-07 -2.761380873402946e-07 0.21780673093742559 148.63665801057908 17.49481386781002 -160.40098973269605 1.3186846171241744e-06 4.511212271272306e-06 116.80329610674501 -179.99999947298906 -33.1940820648028 -131.81258368184118 0.0 0.0 -3.0811623476677818e-15 -118.48502343624432 -15.42228465419737 -179.5539194674283 -1.0341496955845274e-06 1.913114880261552e-06 -95.39288161277017 -3.301613117893931e-07 52.041599202651135 -14.672974886243077 0.0 1.5902773407317584e-15 0.0 4.145747937748003 -9.911385759124116 -14.837577539603018 1.4912555560000251 21.55312071651195 -22.40726975838524 76.42932537008853 -64.79817700951693 122.97173784575703 -1.5902773407317584e-15 -3.1805546814635168e-15 3.1805546814635168e-15 6.883318919768271 8.22040646610415 26.599243035380628 0.5702571347842262 5.001458888589985 3.2381918613834952 -90.54889650122934 -26.799049267948323 -145.6262602015437 0.0 0.0 3.1805546814635168e-15
29.600000381469727 0.0 3.9000000953674316 -6.201679902084203e-08 -3.7517298253591713 104.5659051427805 4.927429355328847 2.099678090587755 -0.08660112030398559 -2.9655151526316587e-07 -2.1145136517046218e-07 0.0011968845761912686 147.76967997917453 17.133600701817585 -160.4324797062078 1.474548941479826e-06 1.745311627601771e-07 117.91317215825788 179.9999985068712 -32.981849070268076 -132.58535933360048 -6.3611093629270335e-15 -5.517382872562698e-32 9.93923337957349e-16 -117.90363376477538 -16.610449427522873 179.91763883000675 2.2451521808356068e-06 -2.1560919903434003e-07 -96.89124602888309 5.309826836106505e-07 53.87669000235913 -12.778106861706037 -7.951386703658792e-16 0.0 0.0 4.1176935683271685 -10.533687816539015 -14.733239007811704 1.4121562474548894 21.547790694052598 -22.443068318109987 76.0591246372107 -64.88557435958262 122.61923833315127 1.1131941385122309e-14 0.0 0.0 6.735409791713801 7.626814616217096 26.78976316109904 0.4888655169430543 5.093936573631905 3.3390113896745564 -90.38533233878579 -27.036394149169595 -145.56639531863624 8.827812596100317e-32 -3.1805546814635168e-15 3.1805546814635168e-15
29.399999618530273 0.10000000149011612 4.0 -0.9391948455970941 -4.218531097750851 104.54844839191463 4.910858594217554 1.4828533151140715 -0.055126301129753086 -3.0285844884404984e-07 -2.807722943204542e-07 -0.15960254082384745 146.75041119110637 16.33831772958261 -160.60097759684598 -1.758142978525521e-07 2.063604808906749e-06 119.22523477192983 179.99999844061492 -38.73729310191937 -131.8756129324614 0.0 0.0 1.4908850069360235e-16 -117.21732043357741 -18.16190050801142 179.73150587845058 8.581441532760985e-07 3.5165553732110947e-06 -98.26786528210565 -2.170032364039819e-06 42.68097251288218 -11.619482326145793 1.5902773407317584e-15 0.0 0.0 4.439180529549457 -11.721915686020534 -14.453768218388314 1.3680881209039657 21.54062733356625 -22.689131415554034 75.74684355051669 -64.86033786561663 122.61849100912048 -4.770832022195275e-15 -3.1805546814635168e-15 -3.1805546814635168e-15 6.915137199210736 6.491775106090742 26.855557243961968 0.4699424138729797 4.868454772613431 3.2365178286069587 -88.7014472299915 -26.55721602369361 -144.66775232995747 0.0 1.5902773407317584e-15 0.0
29.19999885559082 0.10000000149011612 4.099999904632568 -1.4086254480814078 -4.684489817106886 104.20576786470035 4.8799634888170225 1.5271569057748962 -0.05366388571459687 1.2813290177219932e-07 1.058753405447462e-07 -0.1698443925026524 145.8072590879396 15.731283643685616 -160.59370215896666 3.2925368799891446e-06 -2.2192331422390247e-06 120.41024934190925 -179.9999966005478 -43.15007711912779 -127.53063791210441 0.0 0.0 1.0933156717530838e-15 -116.80865060037104 -19.55007360873383 178.8961996463094 9.400354475870913e-07 8.34267833894656e-07 -99.64218139257022 6.624222530271362e-07 37.24933300257759 -10.192550238653636 1.5902773407317584e-15 0.0 0.0 4.814945417019575 -12.39435600574652 -14.493580875343387 1.3739894730156006 21.710583050708856 -22.875784274797457 74.78775093089273 -64.27249338365222 121.71083378798104 -1.5902773407317584e-15 0.0 0.0 7.20214822133447 5.94419779999201 26.888138661884636 0.48486581476409785 4.508254865073294 2.949876751881008 -87.25995866678132 -27.271481965611265 -142.0013978989238 -6.361109362927033e-15 0.0 0.0
29.100000381469727 0.10000000149011612 4.099999904632568 -1.408624784460133 -4.684489265118777 104.01208532120624 4.556896783379873 2.293248039338234 -0.06758474453561163 1.346860055294162e-08 8.401171905417495e-08 -0.12875274248055302 144.5968561156927 15.348664138171186 -160.3051971467683 -6.576665595700945e-07 -2.480743427103785e-06 121.7205976903257 -179.9999991196856 -49.29259904428031 -126.11219801864385 -6.3611093629270335e-15 1.2138242319637935e-31 -2.1866313435061676e-15 -116.36500942551903 -20.42438052493447 178.21438102008221 8.343630599952296e-06 -2.608542782475283e-07 -101.25121505276532 -7.054516606468311e-07 32.094726508540184 -9.009841603843975 -1.590277340731758e-15 6.3611093629270335e-15 -6.3611093629270335e-15 4.9607346959133585 -12.563825519628825 -13.564833963081101 1.6524151393906708 21.815205994752798 -23.630653141504162 74.66400493207611 -64.33874552394128 122.33001388536266 -1.5902773407317588e-15 4.4139062980501586e-32 -3.1805546814635176e-15 7.053465161025463 6.022978112342401 26.22960573651186 0.5422689403057561 3.8177122089151054 2.5211576788890544 -85.67971243870547 -28.065173941944455 -139.7608130313798 0.0 0.0 0.0
29.0 0.20000000298023224 4.199999809265137 -1.87787609645258 -5.149329482409637 103.65094717451522 4.604826378440717 2.0052731241750457 -0.06681160537967944 3.110803886596656e-08 7.4617920433015e-09 0.07803652663840506 143.59855878596943 15.003144290889695 -160.22074001449278 1.750738225312162e-06 -1.5803690690894349e-06 123.06292345475768 179.99999864245913 -50.894172259029475 -125.04563350528947 0.0 0.0 1.987846675914698e-16 -116.20542751629362 -21.358527904597548 177.63161694792328 3.476000681756004e-06 3.389185931101572e-06 -102.36024493809649 1.3517969802749973e-06 32.3151899174292 -9.638491710206916 0.0 0.0 0.0 5.384728467997936 -13.097683026528673 -12.998900584244499 1.8849756961044557 21.69849322085546 -24.084739820257667 74.50828213764164 -64.13928767721755 122.92684459781205 -1.7655625192200634e-31 -3.1805546814635168e-15 -6.3611093629270335e-15 7.547585650503263 5.715740170227567 26.062880758551376 0.0861429390432454 3.322676503395115 2.2121284605274973 -84.434879236706 -29.27042941743108 -137.46369095308012 -6.3611093629270335e-15 1.7655625192200634e-31 -3.1805546814635168e-15
28.799999237060547 0.20000000298023224 4.199999809265137 -2.346883293850365 -5.1477835398937115 103.37097960210927 4.280655677007897 2.121924211303352 -0.062305120334660034 5.0909020181822255e-08 8.568679928610508e-09 0.4819145763776318 142.9375504477229 14.632521611320577 -159.4949548655769 4.75495696879232e-06 7.401979021045528e-07 124.11484454758863 -179.9999943253657 -52.4633291016679 -123.63192359583243 0.0 0.0 -2.9817700138720468e-15 -116.10007861785428 -21.9557742823627 177.34405860795957 2.9981254589984295e-06 -2.6280560909338603e-07 -103.89534506081228 8.403678840491403e-07 22.347122133042593 -11.884795584517374 0.0 0.0 6.3611093629270335e-15 5.307957264183933 -13.657890794871559 -13.11864979151068 1.8773286690008055 21.841248519144678 -24.446729614355938 74.8760442219737 -63.4474122379167 123.67262922597656 7.951386703658793e-15 3.1805546814635176e-15 3.1805546814635176e-15 7.3114784731491005 5.4840652274062105 26.231800208172665 0.20995892527236704 2.6233933433986962 1.7289715363426572 -85.03759769841152 -29.99784704119022 -137.24424105063912 4.4139062980501586e-32 -1.590277340731758e-15 3.180554681463516e-15
28.700000762939453 0.20000000298023224 4.300000190734863 -2.3468654391513035 -5.612900386300116 103.05679963140386 4.513945186422309 2.5885760284941797 -0.06490882724555602 -3.524436719039913e-07 5.3180604210245645e-08 0.9750774597420312 142.11346719092754 14.371930540639534 -158.7160011144899 -2.075947525140061e-06 1.594719866735023e-06 125.09072184999208 179.99999992084506 -52.74900678927395 -123.2969466826715 2.0690185772110117e-32 1.5902773407317584e-15 -1.4908850069360234e-15 -116.19661099527086 -21.95086736979494 176.42277873575196 -1.6353323435274313e-06 -2.1593983852682502e-06 -105.67432384898288 5.44097605909616e-08 31.557310368804096 -18.041532145688734 7.951386703658792e-16 0.0 0.0 5.671389752724837 -13.834114246345695 -12.672639358075742 2.226643570961863 21.96570193320999 -24.523723530049157 74.77338255365204 -63.60522188146902 123.42879879323027 1.590277340731758e-15 -3.180554681463516e-15 3.180554681463516e-15 7.764276291738071 5.553600307978268 26.296592056384 -0.039226909405501074 2.122323422544835 1.4169756720066786 -83.81037620113784 -30.366394735618147 -135.8699578122148 -6.361109362927035e-15 -1.7655625192200634e-31 3.1805546814635176e-15
